<svg width="32" height="33" viewBox="0 0 32 33" fill="none" xmlns="http://www.w3.org/2000/svg">
<path d="M21.0867 9.18573C20.8747 8.97366 20.8747 8.62981 21.0867 8.41774L23.4892 6.01532C23.7012 5.80324 24.0451 5.80324 24.2571 6.01532C24.4692 6.22739 24.4692 6.57123 24.2571 6.78331L21.8547 9.18573C21.6427 9.3978 21.2988 9.3978 21.0867 9.18573Z" fill="#EFF0FA"/>
<path d="M4.17244 12.4298C3.96036 12.6419 3.96036 12.9857 4.17244 13.1978C4.38451 13.4099 4.72835 13.4099 4.94043 13.1978L11.3202 6.81808C11.5322 6.606 11.5322 6.26216 11.3202 6.05008C11.1081 5.83801 10.7642 5.83801 10.5522 6.05008L4.17244 12.4298Z" fill="#EFF0FA"/>
<path d="M4.22281 8.07874C4.01074 8.29082 4.01074 8.63466 4.22281 8.84673C4.43489 9.05881 4.77873 9.05881 4.9908 8.84673L7.01245 6.82509C7.22453 6.61301 7.22453 6.26917 7.01245 6.05709C6.80038 5.84502 6.45653 5.84502 6.24446 6.05709L4.22281 8.07874Z" fill="#EFF0FA"/>
<path d="M4.15906 17.5118C3.94698 17.2998 3.94698 16.9559 4.15906 16.7438L14.8179 6.08497C15.03 5.87289 15.3738 5.87289 15.5859 6.08497C15.798 6.29704 15.798 6.64088 15.5859 6.85296L4.92705 17.5118C4.71497 17.7239 4.37113 17.7239 4.15906 17.5118Z" fill="#EFF0FA"/>
<path d="M17.849 7.35492C17.6369 7.56699 17.6369 7.91083 17.849 8.12291C18.0611 8.33498 18.4049 8.33498 18.617 8.12291L19.9169 6.82296C20.129 6.61088 20.129 6.26704 19.9169 6.05496C19.7048 5.84289 19.361 5.84289 19.1489 6.05496L17.849 7.35492Z" fill="#EFF0FA"/>
<path d="M4.176 21.7958C3.96393 21.5838 3.96393 21.2399 4.176 21.0278L9.43458 15.7693C9.64666 15.5572 9.9905 15.5572 10.2026 15.7693C10.4146 15.9813 10.4146 16.3252 10.2026 16.5373L4.94399 21.7958C4.73192 22.0079 4.38808 22.0079 4.176 21.7958Z" fill="#EFF0FA"/>
<path d="M4.16308 25.3414C3.95101 25.5535 3.95101 25.8974 4.16308 26.1094C4.37516 26.3215 4.719 26.3215 4.93107 26.1094L11.0381 20.0024C11.2502 19.7903 11.2502 19.4465 11.0381 19.2344C10.8261 19.0223 10.4822 19.0223 10.2701 19.2344L4.16308 25.3414Z" fill="#EFF0FA"/>
<path d="M22.4764 11.3288C22.2643 11.5408 22.2643 11.8847 22.4764 12.0968C22.6884 12.3088 23.0323 12.3088 23.2443 12.0968L28.4063 6.93481C28.6184 6.72274 28.6184 6.3789 28.4063 6.16682C28.1942 5.95475 27.8504 5.95475 27.6383 6.16682L22.4764 11.3288Z" fill="#EFF0FA"/>
<path d="M22.4511 16.4229C22.2391 16.2108 22.2391 15.867 22.4511 15.6549L27.6572 10.4489C27.8693 10.2368 28.2131 10.2368 28.4252 10.4489C28.6373 10.6609 28.6373 11.0048 28.4252 11.2169L23.2191 16.4229C23.007 16.635 22.6632 16.635 22.4511 16.4229Z" fill="#EFF0FA"/>
<path d="M22.8586 19.5482C22.6465 19.7603 22.6465 20.1042 22.8586 20.3162C23.0706 20.5283 23.4145 20.5283 23.6266 20.3162L28.4353 15.5075C28.6473 15.2954 28.6473 14.9516 28.4353 14.7395C28.2232 14.5274 27.8793 14.5274 27.6673 14.7395L22.8586 19.5482Z" fill="#EFF0FA"/>
<path d="M24.2119 23.2637C23.9998 23.0517 23.9998 22.7078 24.2119 22.4957L27.7396 18.968C27.9517 18.7559 28.2955 18.7559 28.5076 18.968C28.7197 19.1801 28.7197 19.5239 28.5076 19.736L24.9799 23.2637C24.7678 23.4758 24.4239 23.4758 24.2119 23.2637Z" fill="#EFF0FA"/>
<path d="M25.2995 25.4012C25.0875 25.6132 25.0875 25.9571 25.2995 26.1692C25.5116 26.3812 25.8554 26.3812 26.0675 26.1692L28.4505 23.7862C28.6626 23.5741 28.6626 23.2302 28.4505 23.0182C28.2385 22.8061 27.8946 22.8061 27.6825 23.0182L25.2995 25.4012Z" fill="#EFF0FA"/>
<path fill-rule="evenodd" clip-rule="evenodd" d="M13.1526 10.9423C14.0064 10.0885 15.1644 9.60887 16.3719 9.60887C17.5793 9.60887 18.7373 10.0885 19.5911 10.9423C20.4449 11.7961 20.9246 12.9541 20.9246 14.1616C20.9246 15.3691 20.4449 16.5271 19.5911 17.3809C18.7373 18.2347 17.5793 18.7143 16.3719 18.7143C15.1644 18.7143 14.0064 18.2347 13.1526 17.3809C12.2988 16.5271 11.8191 15.3691 11.8191 14.1616C11.8191 12.9541 12.2988 11.7961 13.1526 10.9423ZM16.3719 11.238C15.5965 11.238 14.8529 11.546 14.3046 12.0943C13.7563 12.6426 13.4483 13.3862 13.4483 14.1616C13.4483 14.937 13.7563 15.6806 14.3046 16.2289C14.8529 16.7772 15.5965 17.0852 16.3719 17.0852C17.1472 17.0852 17.8909 16.7772 18.4391 16.2289C18.9874 15.6806 19.2954 14.937 19.2954 14.1616C19.2954 13.3862 18.9874 12.6426 18.4391 12.0943C17.8909 11.546 17.1472 11.238 16.3719 11.238Z" fill="#EFF0FA"/>
<path d="M12.7075 22.6794C13.6793 21.7076 14.9975 21.1616 16.3719 21.1616C17.7463 21.1616 19.0644 21.7076 20.0363 22.6794C20.8991 23.5422 21.4263 24.678 21.5337 25.8837C21.5736 26.3318 21.9693 26.6627 22.4174 26.6227C22.8655 26.5828 23.1964 26.1872 23.1564 25.7391C23.0152 24.1543 22.3223 22.6615 21.1883 21.5275C19.9109 20.2501 18.1784 19.5324 16.3719 19.5324C14.5654 19.5324 12.8329 20.2501 11.5555 21.5275C10.4214 22.6615 9.72856 24.1543 9.58734 25.7391C9.5474 26.1872 9.87829 26.5828 10.3264 26.6227C10.7745 26.6627 11.1701 26.3318 11.2101 25.8837C11.3175 24.678 11.8447 23.5422 12.7075 22.6794Z" fill="#EFF0FA"/>
</svg>
