<svg width="32" height="32" viewBox="0 0 32 32" fill="none" xmlns="http://www.w3.org/2000/svg">
<path d="M16.0119 -0.000244141C11.0748 -0.000244141 6.82845 3.02897 5.0204 7.31865L9.99831 10.1852C10.7499 7.58292 13.1678 5.6719 16.0119 5.6719C19.4659 5.6719 22.29 8.47746 22.29 11.9539C22.29 15.4101 19.4863 18.236 16.0119 18.236C13.1474 18.236 10.7091 16.2843 9.9779 13.6617L4.99999 16.5486C6.78802 20.8789 11.0548 23.9081 16.0119 23.9081C22.595 23.9081 27.9383 18.5613 27.9383 11.9743C27.9383 5.3466 22.595 -0.000244141 16.0119 -0.000244141Z" fill="white"/>
<path d="M15.5651 25.5348C11.1563 25.5348 7.37694 28.1981 5.73137 31.9998H25.3781C23.7529 28.1981 19.9736 25.5348 15.5651 25.5348Z" fill="white"/>
</svg>
