<svg width="103" height="41" viewBox="0 0 103 41" fill="none" xmlns="http://www.w3.org/2000/svg">
<g clip-path="url(#clip0_2448_49026)">
<path d="M47.0825 7.63574C42.6307 7.63574 38.8017 10.3672 37.1714 14.2352L41.66 16.82C42.3377 14.4735 44.5179 12.7503 47.0825 12.7503C50.1969 12.7503 52.7434 15.2801 52.7434 18.4149C52.7434 21.5312 50.2153 24.0794 47.0825 24.0794C44.4995 24.0794 42.3009 22.3195 41.6416 19.9547L37.153 22.5578C38.7653 26.4625 42.6126 29.1939 47.0825 29.1939C53.0184 29.1939 57.8365 24.3727 57.8365 18.4332C57.8365 12.457 53.0184 7.63574 47.0825 7.63574Z" fill="white"/>
<path d="M46.6797 30.6604C42.7042 30.6604 39.2963 33.0619 37.8125 36.4899H55.528C54.0626 33.0619 50.6548 30.6604 46.6797 30.6604Z" fill="white"/>
<path d="M4.45179 26.4808V38.7633H0V8.05738H4.45179V11.0088C6.009 8.95564 8.66538 7.63574 11.4683 7.63574C16.9827 7.63574 21.9291 11.8521 21.9291 18.5798C21.9291 25.2709 16.7995 29.5239 11.505 29.5239C8.61043 29.5056 5.97233 28.4057 4.45179 26.4808ZM17.4957 18.5248C17.4957 14.6935 14.6011 11.7054 10.8455 11.7054C7.01659 11.7054 4.21363 14.7851 4.21363 18.5248C4.21363 22.3195 7.03492 25.3809 10.8638 25.3809C14.5828 25.3809 17.4957 22.3562 17.4957 18.5248Z" fill="white"/>
<path d="M24.384 8.05737H28.8907V11.3754C30.0266 9.23059 32.0784 8.05737 35.0279 8.05737H37.0432V12.347H34.3134C30.4846 12.347 28.9274 14.2902 28.9274 18.6531V29.0839H24.384V8.05737Z" fill="white"/>
<path d="M56.4439 36.1598C60.3097 36.1598 60.9509 35.5734 60.9509 31.7786V9.68877H65.4943V31.8152C65.4943 38.2865 63.4422 40.3945 57.1219 40.3945H56.4439V36.1598ZM63.2224 0.394531C64.9812 0.394531 66.2453 1.65943 66.2453 3.41928C66.2453 5.17913 64.9812 6.44404 63.2224 6.44404C61.4088 6.44404 60.1996 5.17913 60.1996 3.41928C60.1996 1.65943 61.4453 0.394531 63.2224 0.394531Z" fill="white"/>
<path d="M70.9901 0.394531C72.7489 0.394531 74.0129 1.65943 74.0129 3.41928C74.0129 5.17913 72.7673 6.44404 70.9901 6.44404C69.1765 6.44404 67.9676 5.17913 67.9676 3.41928C67.9676 1.65943 69.2316 0.394531 70.9901 0.394531ZM68.7185 9.68877H73.262V30.7337H68.7185V9.68877Z" fill="white"/>
<path d="M75.6252 9.68881H79.1976V4.72087L83.741 2.24609V9.68881H88.1928V13.7218H83.741V22.0994C83.741 25.8941 84.3274 26.4807 88.1928 26.4807V30.7337H87.5151C81.1212 30.7337 79.1976 28.7172 79.1976 22.1544V13.7401H75.6252V9.68881Z" fill="white"/>
<path d="M90.0061 9.68881H93.5785V4.72087L98.1219 2.24609V9.68881H102.574V13.7218H98.1219V22.0994C98.1219 25.8941 98.7083 26.4807 102.574 26.4807V30.7337H101.896C95.5022 30.7337 93.5785 28.7172 93.5785 22.1544V13.7401H90.0061V9.68881Z" fill="white"/>
</g>
<defs>
<clipPath id="clip0_2448_49026">
<rect width="102.589" height="40" fill="white" transform="translate(0 0.394531)"/>
</clipPath>
</defs>
</svg>
