<svg width="184" height="132" viewBox="0 0 184 132" fill="none" xmlns="http://www.w3.org/2000/svg">
<path fill-rule="evenodd" clip-rule="evenodd" d="M144.885 90.8998C145.318 90.523 145.861 90.2947 146.433 90.2483L146.446 90.2473L169.355 88.6614C169.702 88.6376 170.049 88.7101 170.358 88.8712C170.662 89.0305 170.918 89.2702 171.096 89.5642C171.098 89.5672 171.1 89.5703 171.102 89.5734L171.104 89.5766C171.281 89.8744 171.373 90.2154 171.369 90.562C171.365 90.9097 171.265 91.2496 171.08 91.544L158.851 111.004C158.539 111.486 158.081 111.856 157.544 112.06C157.007 112.264 156.419 112.291 155.866 112.136C155.313 111.982 154.823 111.655 154.469 111.203C154.115 110.75 153.915 110.197 153.898 109.623C153.898 109.609 153.898 109.594 153.898 109.58L153.997 99.8073L145.347 95.2858C145.334 95.279 145.321 95.2721 145.309 95.2649C144.811 94.9785 144.418 94.5404 144.186 94.0146C143.955 93.4888 143.898 92.9029 144.024 92.3425C144.15 91.7821 144.451 91.2765 144.885 90.8998ZM167.441 90.5088L146.603 92.3952C146.49 92.4053 146.383 92.4508 146.298 92.5251C146.211 92.6005 146.151 92.7016 146.126 92.8137C146.1 92.9257 146.112 93.0429 146.158 93.1481C146.202 93.2484 146.276 93.3327 146.369 93.39L155.26 97.796L167.441 90.5088ZM156.32 99.6715L168.547 92.3564L157.039 109.839C156.976 109.934 156.886 110.006 156.78 110.047C156.673 110.087 156.555 110.093 156.444 110.062C156.334 110.031 156.236 109.966 156.165 109.875C156.098 109.789 156.058 109.684 156.052 109.575L156.32 99.6715Z" fill="#444954"/>
<path d="M83.325 34.9156C71.7183 46.6017 51.2099 75.0175 62.0294 95.1918C75.5537 120.41 140.453 78.7983 115.364 67.1657C90.2757 55.5331 65.8819 121.518 101.568 119.891C116.398 118.12 131.221 114.199 145.703 105.012" stroke="#293042" stroke-width="2.25" stroke-dasharray="6 6"/>
<rect x="0.00268555" width="173.524" height="58.3398" rx="29.1699" fill="#272A31"/>
<g opacity="0.4">
<rect x="24.7527" y="20.4312" width="111" height="4.5" rx="2.25" fill="#444954"/>
</g>
<g opacity="0.4">
<rect x="38.2527" y="33.9312" width="110.25" height="4.5" rx="2.25" fill="#444954"/>
</g>
<path d="M40.3918 71.0547L28.4246 54.5999L52.3589 54.5999L40.3918 71.0547Z" fill="#272A31"/>
</svg>
