<svg width="17" height="16" viewBox="0 0 17 16" fill="none" xmlns="http://www.w3.org/2000/svg">
<mask id="mask0_2809_39958" style="mask-type:luminance" maskUnits="userSpaceOnUse" x="0" y="0" width="17" height="16">
<path d="M1.46484 6.33333C1.46484 4.76167 1.46484 3.97667 1.95318 3.48833C2.44151 3 3.22651 3 4.79818 3H13.1315C14.7032 3 15.4882 3 15.9765 3.48833C16.4648 3.97667 16.4648 4.76167 16.4648 6.33333V7.16667H1.46484V6.33333Z" stroke="#C0C0C0" stroke-opacity="0.25"/>
<path d="M14.7982 3H3.13151C2.21104 3 1.46484 3.74619 1.46484 4.66667V13.8333C1.46484 14.7538 2.21104 15.5 3.13151 15.5H14.7982C15.7187 15.5 16.4648 14.7538 16.4648 13.8333V4.66667C16.4648 3.74619 15.7187 3 14.7982 3Z" stroke="white"/>
<path d="M4.79883 0.5V4.66667M13.1322 0.5V4.66667" stroke="white" stroke-linecap="round"/>
</mask>
<g mask="url(#mask0_2809_39958)">
<path d="M-1.03516 -2H18.9648V18H-1.03516V-2Z" fill="#4B4B4B"/>
</g>
</svg>
