<svg width="21" height="22" viewBox="0 0 21 22" fill="none" xmlns="http://www.w3.org/2000/svg">
<path fill-rule="evenodd" clip-rule="evenodd" d="M2.14282 15.6835C1.55171 14.4184 1.22159 13.0069 1.22159 11.5183C1.22159 6.07724 5.63242 1.66642 11.0735 1.66642C12.562 1.66642 13.9735 1.99658 15.2387 2.58764C13.6586 1.36021 11.6736 0.629395 9.5179 0.629395C4.36323 0.629395 0.18457 4.80805 0.18457 9.96273C0.18457 12.1184 0.91539 14.1035 2.14282 15.6835ZM20.9253 12.0368C20.9253 17.1914 16.7466 21.3701 11.5919 21.3701C6.43732 21.3701 2.25861 17.1914 2.25861 12.0368C2.25861 6.8821 6.43732 2.70344 11.5919 2.70344C16.7466 2.70344 20.9253 6.8821 20.9253 12.0368ZM16.9636 9.79813L15.4972 8.33168L10.5549 13.3008L8.17701 10.9229L6.71061 12.3893L10.5549 16.2337L16.9636 9.79813Z" fill="#0D978B"/>
</svg>
