<svg width="16" height="16" viewBox="0 0 16 16" fill="none" xmlns="http://www.w3.org/2000/svg">
<mask id="path-1-inside-1_1585_100" fill="white">
<path d="M14.0306 9.0715H14.0333H14.028H14.0306ZM13.653 8.79293C13.7065 8.96328 13.8608 9.07043 14.0306 9.0715C14.0681 9.0715 14.1094 9.06078 14.1512 9.05007C14.3601 8.98578 14.478 8.75543 14.4083 8.5465C14.3922 8.49828 12.7851 3.71436 8.00011 3.71436C3.21511 3.71436 1.60743 8.49828 1.59136 8.5465C1.52171 8.75543 1.63957 8.98043 1.8485 9.05007C2.06278 9.11971 2.28778 9.00185 2.35743 8.79293L2.35903 8.79025C2.43028 8.58132 3.82528 4.51793 8.00546 4.51793C12.2065 4.51793 13.594 8.61614 13.653 8.79293ZM6.12511 9.0715C6.12511 8.57422 6.32265 8.0973 6.67428 7.74567C7.02591 7.39404 7.50282 7.1965 8.00011 7.1965C8.49739 7.1965 8.9743 7.39404 9.32593 7.74567C9.67756 8.0973 9.8751 8.57422 9.8751 9.0715C9.8751 9.56878 9.67756 10.0457 9.32593 10.3973C8.9743 10.749 8.49739 10.9465 8.00011 10.9465C7.50282 10.9465 7.02591 10.749 6.67428 10.3973C6.32265 10.0457 6.12511 9.56878 6.12511 9.0715ZM8.00011 6.39293C7.2897 6.39293 6.6084 6.67513 6.10607 7.17746C5.60374 7.67979 5.32153 8.3611 5.32153 9.0715C5.32153 9.7819 5.60374 10.4632 6.10607 10.9655C6.6084 11.4679 7.2897 11.7501 8.00011 11.7501C8.71051 11.7501 9.39181 11.4679 9.89414 10.9655C10.3965 10.4632 10.6787 9.7819 10.6787 9.0715C10.6787 8.3611 10.3965 7.67979 9.89414 7.17746C9.39181 6.67513 8.71051 6.39293 8.00011 6.39293Z"/>
</mask>
<path d="M14.0306 9.0715H14.0333H14.028H14.0306ZM13.653 8.79293C13.7065 8.96328 13.8608 9.07043 14.0306 9.0715C14.0681 9.0715 14.1094 9.06078 14.1512 9.05007C14.3601 8.98578 14.478 8.75543 14.4083 8.5465C14.3922 8.49828 12.7851 3.71436 8.00011 3.71436C3.21511 3.71436 1.60743 8.49828 1.59136 8.5465C1.52171 8.75543 1.63957 8.98043 1.8485 9.05007C2.06278 9.11971 2.28778 9.00185 2.35743 8.79293L2.35903 8.79025C2.43028 8.58132 3.82528 4.51793 8.00546 4.51793C12.2065 4.51793 13.594 8.61614 13.653 8.79293ZM6.12511 9.0715C6.12511 8.57422 6.32265 8.0973 6.67428 7.74567C7.02591 7.39404 7.50282 7.1965 8.00011 7.1965C8.49739 7.1965 8.9743 7.39404 9.32593 7.74567C9.67756 8.0973 9.8751 8.57422 9.8751 9.0715C9.8751 9.56878 9.67756 10.0457 9.32593 10.3973C8.9743 10.749 8.49739 10.9465 8.00011 10.9465C7.50282 10.9465 7.02591 10.749 6.67428 10.3973C6.32265 10.0457 6.12511 9.56878 6.12511 9.0715ZM8.00011 6.39293C7.2897 6.39293 6.6084 6.67513 6.10607 7.17746C5.60374 7.67979 5.32153 8.3611 5.32153 9.0715C5.32153 9.7819 5.60374 10.4632 6.10607 10.9655C6.6084 11.4679 7.2897 11.7501 8.00011 11.7501C8.71051 11.7501 9.39181 11.4679 9.89414 10.9655C10.3965 10.4632 10.6787 9.7819 10.6787 9.0715C10.6787 8.3611 10.3965 7.67979 9.89414 7.17746C9.39181 6.67513 8.71051 6.39293 8.00011 6.39293Z" fill="#626262"/>
<path d="M13.653 8.79293L14.6069 8.49294L14.6043 8.4848L14.6016 8.4767L13.653 8.79293ZM14.1512 9.05007L14.3996 10.0187L14.4226 10.0128L14.4453 10.0058L14.1512 9.05007ZM14.4083 8.5465L13.4596 8.86273L14.4083 8.5465ZM1.59136 8.5465L2.54004 8.86273L1.59136 8.5465ZM1.8485 9.05007L1.53226 9.99878L1.53941 10.0011L1.8485 9.05007ZM2.35743 8.79293L1.49997 8.27836L1.44347 8.37252L1.40874 8.4767L2.35743 8.79293ZM2.35903 8.79025L3.21649 9.30481L3.27119 9.21365L3.30551 9.11302L2.35903 8.79025ZM6.12511 9.0715H5.12511H6.12511ZM8.00011 7.1965V6.1965V7.1965ZM8.00011 6.39293V5.39293V6.39293ZM10.6787 9.0715H9.67868H10.6787ZM14.0306 9.0715V10.0715H14.0333V9.0715V8.0715H14.0306V9.0715ZM14.0333 9.0715V8.0715H14.028V9.0715V10.0715H14.0333V9.0715ZM14.028 9.0715V10.0715H14.0306V9.0715V8.0715H14.028V9.0715ZM13.653 8.79293L12.699 9.09291C12.8873 9.69151 13.4348 10.0678 14.0243 10.0715L14.0306 9.0715L14.037 8.07152C14.2868 8.07309 14.5258 8.23505 14.6069 8.49294L13.653 8.79293ZM14.0306 9.0715V10.0715C14.2202 10.0715 14.3942 10.0201 14.3996 10.0187L14.1512 9.05007L13.9028 8.08141C13.8905 8.08455 13.8867 8.08552 13.8838 8.08624C13.8815 8.08678 13.886 8.08565 13.8944 8.08397C13.9078 8.08132 13.9588 8.0715 14.0306 8.0715V9.0715ZM14.1512 9.05007L14.4453 10.0058C15.196 9.77484 15.6024 8.96651 15.357 8.23027L14.4083 8.5465L13.4596 8.86273C13.3535 8.54434 13.5242 8.19673 13.8571 8.09429L14.1512 9.05007ZM14.4083 8.5465L15.357 8.23027C15.3309 8.15193 14.8766 6.81083 13.7607 5.47207C12.6303 4.11592 10.7736 2.71436 8.00011 2.71436V3.71436V4.71436C10.0116 4.71436 11.351 5.70476 12.2244 6.75262C13.1123 7.81788 13.4697 8.89285 13.4596 8.86273L14.4083 8.5465ZM8.00011 3.71436V2.71436C5.22662 2.71436 3.36981 4.1159 2.23928 5.47202C1.12325 6.81075 0.668822 8.15182 0.642673 8.23027L1.59136 8.5465L2.54004 8.86273C2.52996 8.89296 2.88741 7.81796 3.77548 6.75267C4.64906 5.70477 5.98859 4.71436 8.00011 4.71436V3.71436ZM1.59136 8.5465L0.642673 8.23027C0.391449 8.98394 0.820443 9.76148 1.53227 9.99875L1.8485 9.05007L2.16473 8.10139C2.4587 8.19938 2.65198 8.52691 2.54004 8.86273L1.59136 8.5465ZM1.8485 9.05007L1.53941 10.0011C2.28499 10.2434 3.0657 9.83038 3.30611 9.10915L2.35743 8.79293L1.40874 8.4767C1.50987 8.17333 1.84058 7.99601 2.15759 8.09903L1.8485 9.05007ZM2.35743 8.79293L3.21488 9.30749L3.21649 9.30481L2.35903 8.79025L1.50158 8.27569L1.49997 8.27836L2.35743 8.79293ZM2.35903 8.79025L3.30551 9.11302C3.32545 9.05456 3.64322 8.12323 4.40532 7.22105C5.15142 6.3378 6.28668 5.51793 8.00546 5.51793V4.51793V3.51793C5.54407 3.51793 3.89173 4.72975 2.87748 5.93043C1.87922 7.11217 1.46387 8.31701 1.41256 8.46747L2.35903 8.79025ZM8.00546 4.51793V5.51793C9.73309 5.51793 10.8712 6.34492 11.6169 7.2324C12.3788 8.13924 12.6917 9.07135 12.7043 9.10915L13.653 8.79293L14.6016 8.4767C14.5553 8.33771 14.145 7.13233 13.1482 5.94586C12.135 4.74004 10.4789 3.51793 8.00546 3.51793V4.51793ZM6.12511 9.0715H7.12511C7.12511 8.83943 7.21729 8.61687 7.38139 8.45278L6.67428 7.74567L5.96717 7.03857C5.42801 7.57773 5.12511 8.309 5.12511 9.0715H6.12511ZM6.67428 7.74567L7.38139 8.45278C7.54548 8.28868 7.76804 8.1965 8.00011 8.1965V7.1965V6.1965C7.23761 6.1965 6.50634 6.4994 5.96717 7.03857L6.67428 7.74567ZM8.00011 7.1965V8.1965C8.23217 8.1965 8.45473 8.28869 8.61882 8.45278L9.32593 7.74567L10.033 7.03857C9.49387 6.4994 8.7626 6.1965 8.00011 6.1965V7.1965ZM9.32593 7.74567L8.61882 8.45278C8.78292 8.61687 8.8751 8.83943 8.8751 9.0715H9.8751H10.8751C10.8751 8.309 10.5722 7.57773 10.033 7.03857L9.32593 7.74567ZM9.8751 9.0715H8.8751C8.8751 9.30356 8.78292 9.52612 8.61882 9.69022L9.32593 10.3973L10.033 11.1044C10.5722 10.5653 10.8751 9.83399 10.8751 9.0715H9.8751ZM9.32593 10.3973L8.61882 9.69022C8.45473 9.85431 8.23217 9.9465 8.00011 9.9465V10.9465V11.9465C8.7626 11.9465 9.49387 11.6436 10.033 11.1044L9.32593 10.3973ZM8.00011 10.9465V9.9465C7.76804 9.9465 7.54548 9.85431 7.38139 9.69022L6.67428 10.3973L5.96717 11.1044C6.50634 11.6436 7.23761 11.9465 8.00011 11.9465V10.9465ZM6.67428 10.3973L7.38139 9.69022C7.21729 9.52612 7.12511 9.30356 7.12511 9.0715H6.12511H5.12511C5.12511 9.83399 5.42801 10.5653 5.96717 11.1044L6.67428 10.3973ZM8.00011 6.39293V5.39293C7.02449 5.39293 6.08883 5.78049 5.39896 6.47036L6.10607 7.17746L6.81318 7.88457C7.12797 7.56978 7.55492 7.39293 8.00011 7.39293V6.39293ZM6.10607 7.17746L5.39896 6.47036C4.7091 7.16022 4.32153 8.09588 4.32153 9.0715H5.32153H6.32153C6.32153 8.62631 6.49838 8.19936 6.81318 7.88457L6.10607 7.17746ZM5.32153 9.0715H4.32153C4.32153 10.0471 4.7091 10.9828 5.39896 11.6726L6.10607 10.9655L6.81318 10.2584C6.49838 9.94363 6.32153 9.51668 6.32153 9.0715H5.32153ZM6.10607 10.9655L5.39896 11.6726C6.08883 12.3625 7.02449 12.7501 8.00011 12.7501V11.7501V10.7501C7.55492 10.7501 7.12797 10.5732 6.81318 10.2584L6.10607 10.9655ZM8.00011 11.7501V12.7501C8.97572 12.7501 9.91138 12.3625 10.6012 11.6726L9.89414 10.9655L9.18703 10.2584C8.87224 10.5732 8.44529 10.7501 8.00011 10.7501V11.7501ZM9.89414 10.9655L10.6012 11.6726C11.2911 10.9828 11.6787 10.0471 11.6787 9.0715H10.6787H9.67868C9.67868 9.51668 9.50183 9.94363 9.18703 10.2584L9.89414 10.9655ZM10.6787 9.0715H11.6787C11.6787 8.09588 11.2911 7.16022 10.6012 6.47036L9.89414 7.17746L9.18703 7.88457C9.50183 8.19936 9.67868 8.62631 9.67868 9.0715H10.6787ZM9.89414 7.17746L10.6012 6.47036C9.91138 5.78049 8.97572 5.39293 8.00011 5.39293V6.39293V7.39293C8.44529 7.39293 8.87224 7.56978 9.18703 7.88457L9.89414 7.17746Z" fill="#BCBCBC" mask="url(#path-1-inside-1_1585_100)"/>
</svg>
