<svg width="56" height="56" viewBox="0 0 56 56" fill="none" xmlns="http://www.w3.org/2000/svg">
<path d="M49.1709 46.5619C53.2685 44.7043 53.9924 35.1707 53.9924 27.9999C53.9924 20.8292 53.1865 11.2956 49.1709 9.438C47.1494 7.58044 36.3319 7.07507 27.3173 7.07507C18.3026 7.07507 7.53969 7.58044 5.46359 9.438C1.44798 11.2956 0.683105 20.8292 0.683105 27.9999C0.683105 35.1707 1.44798 44.7043 5.46359 46.5619C7.49872 48.4195 18.3163 48.9248 27.3173 48.9248C36.3182 48.9248 47.1085 48.4878 49.1709 46.5619Z" fill="#0D978B" stroke="white" stroke-width="1.36585" stroke-miterlimit="10"/>
<path d="M6.37842 18.439C11.3638 23.6429 18.5891 29.2702 20.8155 30.2399C22.8391 31.2324 25.0631 31.7484 27.317 31.7484C29.5708 31.7484 31.7948 31.2324 33.8184 30.2399C36.0311 29.3658 43.2565 23.6975 48.2418 18.439M19.7092 29.8985L10.2028 39.4185M34.9248 29.8985L44.4448 39.4185" stroke="white" stroke-width="1.36585" stroke-miterlimit="10" stroke-linecap="round"/>
<path d="M39.678 10.9677C42.1323 10.9634 44.5684 11.3887 46.876 12.2243" stroke="white" stroke-width="1.36585" stroke-miterlimit="10" stroke-linecap="round"/>
</svg>
