<svg width="21" height="20" viewBox="0 0 21 20" fill="none" xmlns="http://www.w3.org/2000/svg">
<g clip-path="url(#clip0_2809_39962)">
<path d="M5.80884 8.6233C5.89348 8.6233 5.98788 8.63632 6.09205 8.66236C6.19621 8.6884 6.30038 8.72421 6.40455 8.76978C6.50871 8.81535 6.61288 8.85767 6.71705 8.89673C6.82121 8.9358 6.91562 8.97486 7.00025 9.01392L6.844 9.03345C6.79192 9.03996 6.73658 9.04322 6.67798 9.04322C6.56731 9.04322 6.4664 9.02694 6.37525 8.99439C6.2841 8.96184 6.19947 8.91952 6.12134 8.86744C6.04322 8.81535 5.96509 8.77629 5.88697 8.75025C5.80884 8.72421 5.73723 8.70468 5.67213 8.69166C5.60702 8.69166 5.54843 8.70468 5.49634 8.73072C5.44426 8.75676 5.39218 8.78606 5.34009 8.81861C5.34009 8.79257 5.31731 8.77955 5.27173 8.77955C5.31731 8.73397 5.40194 8.69817 5.52564 8.67212C5.64934 8.64608 5.74374 8.62981 5.80884 8.6233ZM7.1272 9.06275C7.39413 9.06275 7.63827 9.10832 7.85963 9.19947C7.76848 9.23202 7.67733 9.25806 7.58619 9.27759C7.49504 9.29712 7.40064 9.31015 7.30298 9.31666C7.17278 9.31666 7.05559 9.30364 6.95142 9.27759C6.98397 9.22551 7.01653 9.19296 7.04908 9.17994C7.08163 9.16692 7.10767 9.12785 7.1272 9.06275ZM10.9651 0.000250401C11.8831 0.000250401 12.7652 0.120693 13.6116 0.361579C14.4579 0.602464 15.2522 0.93775 15.9944 1.36744C16.7366 1.79713 17.4137 2.32121 18.0256 2.9397C18.6376 3.55819 19.1585 4.23202 19.5881 4.96119C20.0178 5.69035 20.3564 6.48463 20.6038 7.344C20.8512 8.20337 20.9716 9.08879 20.9651 10.0002C20.9651 10.9182 20.8447 11.8004 20.6038 12.6467C20.3629 13.4931 20.0276 14.2874 19.5979 15.0295C19.1682 15.7717 18.6441 16.4488 18.0256 17.0608C17.4072 17.6728 16.7333 18.1936 16.0042 18.6233C15.275 19.053 14.4807 19.3915 13.6213 19.6389C12.762 19.8863 11.8766 20.0068 10.9651 20.0002C10.0471 20.0002 9.16496 19.8798 8.31861 19.6389C7.47226 19.398 6.67798 19.0627 5.9358 18.6331C5.19361 18.2034 4.51653 17.6793 3.90455 17.0608C3.29257 16.4423 2.77173 15.7685 2.34205 15.0393C1.91236 14.3101 1.57382 13.5159 1.32642 12.6565C1.07903 11.7971 0.958584 10.9117 0.965094 10.0002C0.965094 9.08228 1.08554 8.20012 1.32642 7.35377C1.56731 6.50741 1.90259 5.71314 2.33228 4.97095C2.76197 4.22877 3.28606 3.55168 3.90455 2.9397C4.52304 2.32772 5.19687 1.80689 5.92603 1.3772C6.6552 0.947516 7.44947 0.608974 8.30884 0.361579C9.16822 0.114183 10.0536 -0.00626002 10.9651 0.000250401ZM18.4065 5.42017C18.3154 5.27694 18.2242 5.14022 18.1331 5.01002C18.0419 4.87981 17.9475 4.74634 17.8499 4.60963C17.8368 4.66822 17.8206 4.71054 17.801 4.73658C17.7815 4.76262 17.7685 4.82121 17.762 4.91236C17.762 4.97095 17.7848 5.02629 17.8303 5.07838C17.8759 5.13046 17.9345 5.18254 18.0061 5.23463C18.0777 5.28671 18.1493 5.32577 18.221 5.35181C18.2926 5.37785 18.3544 5.40064 18.4065 5.42017ZM17.7327 4.46314C17.7327 4.51522 17.7229 4.55103 17.7034 4.57056H17.762C17.788 4.57056 17.8075 4.57382 17.8206 4.58033L17.7327 4.46314ZM10.9651 18.7502C11.7073 18.7502 12.4332 18.6558 13.1428 18.467C13.8525 18.2782 14.523 18.0113 15.1545 17.6663C15.7861 17.3212 16.372 16.898 16.9124 16.3967C17.4527 15.8954 17.9247 15.3355 18.3284 14.717C18.2437 14.5217 18.1624 14.3232 18.0842 14.1213C18.0061 13.9195 17.967 13.7112 17.967 13.4963C17.967 13.262 17.9768 13.0732 17.9963 12.9299C18.0159 12.7867 18.0387 12.6598 18.0647 12.5491C18.0907 12.4384 18.1038 12.344 18.1038 12.2659C18.1038 12.1877 18.094 12.0868 18.0745 11.9631C18.0549 11.8394 17.9996 11.706 17.9085 11.5627C17.8173 11.4195 17.6969 11.2177 17.5471 10.9573C17.5536 10.9117 17.5634 10.8499 17.5764 10.7717C17.5894 10.6936 17.6025 10.6122 17.6155 10.5276C17.6285 10.443 17.6318 10.3648 17.6252 10.2932C17.6187 10.2216 17.6025 10.1598 17.5764 10.1077C17.4072 10.0881 17.2314 10.0523 17.0491 10.0002C16.8668 9.94817 16.704 9.87004 16.5608 9.76587L16.6194 9.71705C16.5348 9.73658 16.4501 9.76262 16.3655 9.79517C16.2808 9.82772 16.1995 9.86353 16.1213 9.90259C16.0432 9.94166 15.9586 9.9677 15.8674 9.98072C15.7763 9.99374 15.6884 10.0068 15.6038 10.0198L15.4475 10.0002L15.4768 9.93189C15.3857 9.95793 15.288 9.99048 15.1838 10.0295C15.0797 10.0686 14.9788 10.0881 14.8811 10.0881C14.816 10.0881 14.7216 10.0654 14.5979 10.0198C14.4742 9.97421 14.3505 9.91887 14.2268 9.85377C14.1031 9.78866 13.9924 9.71705 13.8948 9.63892C13.7971 9.5608 13.7483 9.48593 13.7483 9.41431L13.7678 9.38502C13.7353 9.34595 13.693 9.31015 13.6409 9.27759C13.5888 9.24504 13.54 9.21249 13.4944 9.17994C13.4488 9.14739 13.4065 9.11158 13.3674 9.07252C13.3284 9.03345 13.3121 8.98788 13.3186 8.9358L13.426 8.84791L13.2014 8.81861L13.1233 8.52564C13.1363 8.55819 13.1656 8.57121 13.2112 8.5647C13.2568 8.55819 13.2926 8.54517 13.3186 8.52564L12.967 8.34009L13.2112 7.71509C13.12 7.37655 13.0973 7.11614 13.1428 6.93384C13.1884 6.75155 13.2763 6.60181 13.4065 6.48463C13.5367 6.36744 13.6799 6.25025 13.8362 6.13306C13.9924 6.01588 14.1519 5.85637 14.3147 5.65455L14.2854 5.53736L14.9299 4.75611L15.0764 4.73658C15.2587 4.73658 15.4638 4.73007 15.6917 4.71705C15.9195 4.70403 16.1506 4.68124 16.385 4.64869C16.6194 4.61614 16.8505 4.58358 17.0784 4.55103C17.3062 4.51848 17.5146 4.47616 17.7034 4.42408C17.495 4.17668 17.2769 3.94231 17.0491 3.72095C16.8212 3.4996 16.5771 3.28801 16.3167 3.08619C16.245 3.11223 16.1572 3.14804 16.053 3.19361C15.9488 3.23918 15.8447 3.29778 15.7405 3.36939C15.6363 3.44101 15.5549 3.51913 15.4963 3.60377C15.4377 3.6884 15.4019 3.77629 15.3889 3.86744L15.4475 4.05298C15.3303 4.24179 15.2001 4.35897 15.0569 4.40455C14.9137 4.45012 14.7672 4.47616 14.6174 4.48267C14.4677 4.48918 14.3114 4.48918 14.1487 4.48267C13.9859 4.47616 13.8297 4.50546 13.6799 4.57056L13.5237 4.23853L13.6702 3.67213L13.5042 3.42798L15.1936 2.90064C15.122 2.71835 15.0048 2.58163 14.842 2.49048C14.6793 2.39934 14.5002 2.35377 14.3049 2.35377V2.25611L14.8518 2.16822C14.2463 1.86874 13.6181 1.64088 12.967 1.48463C12.316 1.32838 11.6487 1.25025 10.9651 1.25025C10.3987 1.25025 9.83879 1.30559 9.28541 1.41627C8.73202 1.52694 8.19817 1.68645 7.68384 1.89478C7.16952 2.10311 6.67147 2.36353 6.1897 2.67603C5.70793 2.98853 5.26848 3.34009 4.87134 3.73072C5.04062 3.73072 5.17082 3.77304 5.26197 3.85767C5.35312 3.94231 5.43775 4.03671 5.51588 4.14088C5.594 4.24504 5.67538 4.33944 5.76002 4.42408C5.84465 4.50871 5.95858 4.55429 6.10181 4.5608L6.25806 4.44361L6.23853 4.22877L6.5608 3.76978L6.30689 3.04713C6.33944 3.02759 6.38827 2.99504 6.45338 2.94947C6.51848 2.9039 6.57382 2.88111 6.61939 2.88111C6.8147 2.88111 6.96444 2.89088 7.06861 2.91041C7.17278 2.92994 7.26392 2.96575 7.34205 3.01783C7.42017 3.06991 7.48853 3.14478 7.54713 3.24244C7.60572 3.34009 7.69687 3.46379 7.82056 3.61353L8.17213 3.34009C8.23723 3.36614 8.3414 3.40845 8.48463 3.46705C8.62785 3.52564 8.77434 3.59726 8.92408 3.68189C9.07382 3.76653 9.20077 3.85442 9.30494 3.94556C9.4091 4.03671 9.46444 4.12134 9.47095 4.19947C9.47095 4.29713 9.43515 4.37525 9.36353 4.43384C9.29192 4.49244 9.19752 4.54127 9.08033 4.58033C8.96314 4.61939 8.8427 4.64869 8.719 4.66822C8.5953 4.68775 8.4716 4.71379 8.34791 4.74634C8.22421 4.7789 8.12981 4.81145 8.0647 4.844C7.9996 4.87655 7.96054 4.93189 7.94752 5.01002L8.51392 5.19556C8.38371 5.30624 8.24374 5.40715 8.094 5.4983C7.94426 5.58944 7.78801 5.67408 7.62525 5.7522L7.66431 5.91822L6.76588 6.26978V6.54322L6.69752 6.57252L6.74634 6.23072L6.70728 6.22095C6.66171 6.22095 6.63567 6.23072 6.62916 6.25025C6.62265 6.26978 6.61939 6.29257 6.61939 6.31861C6.61939 6.34465 6.6259 6.37069 6.63892 6.39673C6.65194 6.42278 6.6552 6.44231 6.64869 6.45533L6.52173 6.38697L6.54127 6.42603C6.54127 6.44556 6.55103 6.47486 6.57056 6.51392C6.59009 6.55298 6.61614 6.58879 6.64869 6.62134C6.68124 6.6539 6.70728 6.68645 6.72681 6.719C6.74634 6.75155 6.75937 6.76783 6.76588 6.76783C6.76588 6.78736 6.75285 6.80689 6.72681 6.82642C6.70077 6.84595 6.66822 6.85897 6.62916 6.86548C6.59009 6.87199 6.56405 6.88176 6.55103 6.89478C6.53801 6.9078 6.53801 6.91106 6.55103 6.90455C6.64218 6.90455 6.66171 6.91106 6.60963 6.92408C6.55754 6.9371 6.47616 6.96965 6.36548 7.02173C6.25481 7.07382 6.1539 7.14869 6.06275 7.24634C5.9716 7.344 5.91952 7.48723 5.9065 7.67603C5.9065 7.78671 5.90976 7.89413 5.91627 7.9983C5.92278 8.10246 5.91952 8.20989 5.9065 8.32056C5.81535 8.07317 5.67864 7.88437 5.49634 7.75416C5.31405 7.62395 5.0927 7.55884 4.83228 7.55884L4.41236 7.59791L4.61744 7.73463C4.50676 7.7216 4.39283 7.70858 4.27564 7.69556C4.15845 7.68254 4.03801 7.67929 3.91431 7.6858C3.79061 7.69231 3.67994 7.71835 3.58228 7.76392C3.48463 7.80949 3.38697 7.87785 3.28931 7.969L3.23072 8.40845C3.23072 8.61679 3.27629 8.78606 3.36744 8.91627C3.45858 9.04647 3.61809 9.11483 3.84595 9.12134C4.04127 9.12134 4.23332 9.09205 4.42213 9.03345C4.61093 8.97486 4.79647 8.9065 4.97877 8.82837C4.92017 8.9716 4.85507 9.10832 4.78345 9.23853C4.71184 9.36874 4.65976 9.51197 4.6272 9.66822L4.75416 9.72681C4.91041 9.62265 5.05364 9.60637 5.18384 9.67798C5.31405 9.7496 5.44101 9.85377 5.5647 9.99048C5.6884 10.1272 5.81535 10.2672 5.94556 10.4104C6.07577 10.5536 6.21574 10.6578 6.36548 10.7229L6.03345 10.8987L5.2522 10.4592C5.25871 10.4723 5.26522 10.5016 5.27173 10.5471C5.27824 10.5927 5.27499 10.6025 5.26197 10.5764L4.91041 9.98072C4.70207 9.97421 4.48072 9.94166 4.24634 9.88306C4.01197 9.82447 3.77434 9.74634 3.53345 9.64869C3.29257 9.55103 3.06796 9.44361 2.85963 9.32642C2.65129 9.20923 2.45923 9.08554 2.28345 8.95533L2.21509 10.0002C2.21509 10.7945 2.32252 11.5693 2.53736 12.3245C2.7522 13.0797 3.05494 13.7893 3.44556 14.4534C3.83619 15.1174 4.3147 15.7229 4.88111 16.2698C5.44752 16.8167 6.07577 17.2822 6.76588 17.6663C6.73332 17.5295 6.73007 17.3928 6.75611 17.2561C6.78215 17.1194 6.8147 16.9827 6.85377 16.846C6.89283 16.7092 6.93515 16.5725 6.98072 16.4358C7.02629 16.2991 7.04908 16.1591 7.04908 16.0159C7.04908 15.8075 7.01653 15.5894 6.95142 15.3616C6.88632 15.1337 6.80819 14.9026 6.71705 14.6682C6.6259 14.4338 6.52499 14.2027 6.41431 13.9749C6.30364 13.747 6.21574 13.5322 6.15064 13.3303C6.08554 13.1285 6.03345 12.9397 5.99439 12.7639C5.95533 12.5881 5.97486 12.4351 6.05298 12.3049L5.9065 12.2366C5.94556 12.1454 5.99765 12.0575 6.06275 11.9729C6.12785 11.8883 6.19621 11.8036 6.26783 11.719C6.33944 11.6344 6.39478 11.5432 6.43384 11.4456C6.47291 11.3479 6.49569 11.2502 6.5022 11.1526C6.5022 11.0875 6.48918 11.0191 6.46314 10.9475C6.4371 10.8759 6.41431 10.8075 6.39478 10.7424L6.59986 10.7913C6.71054 10.5374 6.86028 10.3648 7.04908 10.2737C7.23788 10.1825 7.47551 10.1337 7.76197 10.1272C7.79452 10.1272 7.86288 10.1402 7.96705 10.1663C8.07121 10.1923 8.18189 10.2281 8.29908 10.2737C8.41627 10.3193 8.52694 10.3551 8.63111 10.3811C8.73528 10.4072 8.8134 10.4332 8.86548 10.4592C8.86548 10.5048 8.89153 10.5341 8.94361 10.5471C8.99569 10.5601 9.02499 10.5829 9.0315 10.6155L9.01197 10.6936C9.0315 10.7001 9.07707 10.7229 9.14869 10.762C9.2203 10.801 9.29843 10.8499 9.38306 10.9085C9.4677 10.967 9.54257 11.0191 9.60767 11.0647C9.67278 11.1103 9.71835 11.1461 9.74439 11.1721C9.86158 11.1721 10.0211 11.2112 10.2229 11.2893C10.4247 11.3674 10.6461 11.4651 10.887 11.5823C11.1279 11.6995 11.3655 11.8394 11.5999 12.0022C11.8342 12.165 12.0556 12.3277 12.2639 12.4905C12.4723 12.6532 12.6318 12.816 12.7424 12.9788C12.8531 13.1415 12.9182 13.2848 12.9377 13.4085L12.6057 13.76C12.6318 14.092 12.609 14.346 12.5374 14.5217C12.4657 14.6975 12.3551 14.844 12.2053 14.9612C12.0556 15.0784 11.8831 15.176 11.6877 15.2542C11.4924 15.3323 11.2808 15.443 11.053 15.5862C11.053 15.7164 11.0204 15.8564 10.9553 16.0061C10.8902 16.1558 10.8088 16.2991 10.7112 16.4358C10.6135 16.5725 10.4963 16.6864 10.3596 16.7776C10.2229 16.8687 10.0862 16.9143 9.94947 16.9143L9.53931 16.6018C9.55233 16.6148 9.55233 16.6376 9.53931 16.6702C9.52629 16.7027 9.51002 16.7092 9.49048 16.6897C9.55559 16.8134 9.57187 16.9566 9.53931 17.1194C9.50676 17.2822 9.45142 17.4482 9.3733 17.6174C9.29517 17.7867 9.20728 17.9462 9.10962 18.096C9.01197 18.2457 8.92408 18.3726 8.84595 18.4768C9.19752 18.568 9.54908 18.6363 9.90064 18.6819C10.2522 18.7275 10.607 18.7502 10.9651 18.7502Z" fill="#4B4B4B"/>
</g>
<defs>
<clipPath id="clip0_2809_39962">
<rect width="20" height="20" fill="white" transform="translate(0.964844)"/>
</clipPath>
</defs>
</svg>
